<?xml version="1.0" encoding="UTF-8"?>
<svg version="1.1" xmlns="http://www.w3.org/2000/svg" width="128" height="128">
<path d="M0 0 C42.24 0 84.48 0 128 0 C128 42.24 128 84.48 128 128 C85.76 128 43.52 128 0 128 C0 85.76 0 43.52 0 0 Z " fill="#0B0A09" transform="translate(0,0)"/>
<path d="M0 0 C0.66 0.33 1.32 0.66 2 1 C2 1.66 2 2.32 2 3 C3.98 2.67 5.96 2.34 8 2 C8.33 3.32 8.66 4.64 9 6 C10.98 6 12.96 6 15 6 C15.67154933 7.28913487 16.33708859 8.58140204 17 9.875 C17.37125 10.59429687 17.7425 11.31359375 18.125 12.0546875 C19 14 19 14 19 16 C20.32 16 21.64 16 23 16 C23 15.34 23 14.68 23 14 C24.98 14.66 26.96 15.32 29 16 C29 16.99 29 17.98 29 19 C28.32453125 19.0515625 27.6490625 19.103125 26.953125 19.15625 C24.11083072 19.51769783 21.67290797 19.95463377 19 21 C17.63927255 22.94880209 16.95574904 24.82621892 16.125 27.046875 C14.29180085 30.22951241 11.38500302 30.77903673 8.0625 31.9921875 C5.62860058 32.95861638 5.62860058 32.95861638 3.9375 36.25 C3.628125 37.1575 3.31875 38.065 3 39 C2.34 39 1.68 39 1 39 C0.67 40.32 0.34 41.64 0 43 C0 39.04 0 35.08 0 31 C-1.32 30.67 -2.64 30.34 -4 30 C-4.99 29.34 -5.98 28.68 -7 28 C-7.1875 25.375 -7.1875 25.375 -7 23 C-7.66 23 -8.32 23 -9 23 C-9 21.35 -9 19.7 -9 18 C-11.97 18 -14.94 18 -18 18 C-18 17.67 -18 17.34 -18 17 C-14.7 16.67 -11.4 16.34 -8 16 C-8 15.34 -8 14.68 -8 14 C-7.34 14 -6.68 14 -6 14 C-5.67 12.68 -5.34 11.36 -5 10 C-3.35 10 -1.7 10 0 10 C0 6.7 0 3.4 0 0 Z " fill="#252325" transform="translate(46,26)"/>
<path d="M0 0 C0.99 0 1.98 0 3 0 C3 0.99 3 1.98 3 3 C3.66 3 4.32 3 5 3 C5 3.66 5 4.32 5 5 C5.86625 4.484375 6.7325 3.96875 7.625 3.4375 C11.4413409 1.81202147 13.1177729 1.58828106 17 3 C18.375 5.5625 18.375 5.5625 19 8 C16.93243723 10.7972908 15.85559629 11.02692273 12.3125 11.6875 C11.219375 11.790625 10.12625 11.89375 9 12 C8.34 10.68 7.68 9.36 7 8 C5.68 8 4.36 8 3 8 C2.67 7.34 2.34 6.68 2 6 C1.67 8.97 1.34 11.94 1 15 C-0.65 15 -2.3 15 -4 15 C-4.33 16.32 -4.66 17.64 -5 19 C-5.66 19 -6.32 19 -7 19 C-7 19.66 -7 20.32 -7 21 C-11.29 21.66 -15.58 22.32 -20 23 C-20 22.34 -20 21.68 -20 21 C-13.375 17.125 -13.375 17.125 -10 16 C-10 15.34 -10 14.68 -10 14 C-9.34 13.67 -8.68 13.34 -8 13 C-7.54625 11.845 -7.0925 10.69 -6.625 9.5 C-5 6 -5 6 -2.8125 5.0625 C-2.214375 5.041875 -1.61625 5.02125 -1 5 C-0.67 3.35 -0.34 1.7 0 0 Z " fill="#1E1D1F" transform="translate(45,21)"/>
<path d="M0 0 C0.33 0 0.66 0 1 0 C1.33 3.3 1.66 6.6 2 10 C2.99 10.33 3.98 10.66 5 11 C5.99 12.485 5.99 12.485 7 14 C9.19454681 14.57993699 9.19454681 14.57993699 11.625 14.6875 C12.44226563 14.75324219 13.25953125 14.81898437 14.1015625 14.88671875 C15.04128906 14.94279297 15.04128906 14.94279297 16 15 C16 15.33 16 15.66 16 16 C13.03 16 10.06 16 7 16 C6.67 17.32 6.34 18.64 6 20 C5.34 20 4.68 20 4 20 C4 20.66 4 21.32 4 22 C3.34 22 2.68 22 2 22 C1.67 23.98 1.34 25.96 1 28 C0.67 26.68 0.34 25.36 0 24 C-0.99 24 -1.98 24 -3 24 C-7 19.77142857 -7 19.77142857 -7 16 C-10.63 16 -14.26 16 -18 16 C-18 15.67 -18 15.34 -18 15 C-14.7 14.67 -11.4 14.34 -8 14 C-8 13.34 -8 12.68 -8 12 C-7.34 12 -6.68 12 -6 12 C-5.67 10.68 -5.34 9.36 -5 8 C-3.35 8 -1.7 8 0 8 C0 5.36 0 2.72 0 0 Z " fill="#75828E" transform="translate(46,28)"/>
<path d="M0 0 C0.99 0.495 0.99 0.495 2 1 C2 1.66 2 2.32 2 3 C3.98 2.67 5.96 2.34 8 2 C8.33 3.32 8.66 4.64 9 6 C10.98 6 12.96 6 15 6 C15.67154933 7.28913487 16.33708859 8.58140204 17 9.875 C17.37125 10.59429687 17.7425 11.31359375 18.125 12.0546875 C19 14 19 14 19 16 C20.65 16.33 22.3 16.66 24 17 C24 17.33 24 17.66 24 18 C21.26762206 17.96686201 18.54325157 17.89958039 15.8125 17.8125 C15.04357422 17.80669922 14.27464844 17.80089844 13.48242188 17.79492188 C9.37557794 17.63628842 7.44232352 17.32126655 4.03125 14.84375 C1.75206993 11.6528979 1.15499903 9.55499195 0.6875 5.6875 C0.54699219 4.61886719 0.40648437 3.55023437 0.26171875 2.44921875 C0.17535156 1.64097656 0.08898438 0.83273438 0 0 Z " fill="#24282E" transform="translate(46,26)"/>
<path d="M0 0 C0 1.65 0 3.3 0 5 C-1.65 5 -3.3 5 -5 5 C-5.33 6.32 -5.66 7.64 -6 9 C-6.66 9 -7.32 9 -8 9 C-8 9.66 -8 10.32 -8 11 C-12.29 11.66 -16.58 12.32 -21 13 C-21 12.34 -21 11.68 -21 11 C-14.375 7.125 -14.375 7.125 -11 6 C-11 5.34 -11 4.68 -11 4 C-7.37287308 0.37287308 -5.09424101 -0.47388288 0 0 Z " fill="#2D3038" transform="translate(46,31)"/>
<path d="M0 0 C2.31 0 4.62 0 7 0 C7.33 1.32 7.66 2.64 8 4 C7.34 4 6.68 4 6 4 C6 5.32 6 6.64 6 8 C2.32589215 9.17571451 -1.16929183 9.07366746 -5 9 C-5 8.01 -5 7.02 -5 6 C-4.34 6 -3.68 6 -3 6 C-3 5.34 -3 4.68 -3 4 C-2.34 3.67 -1.68 3.34 -1 3 C-0.67 2.01 -0.34 1.02 0 0 Z " fill="#3F4555" transform="translate(53,44)"/>
<path d="M0 0 C1.75070517 0.11470137 3.50057536 0.24219028 5.25 0.375 C6.22453125 0.44460937 7.1990625 0.51421875 8.203125 0.5859375 C10.89633189 0.98465249 12.66963279 1.63507063 15 3 C15 5.31 15 7.62 15 10 C14.34 10 13.68 10 13 10 C12.67 8.68 12.34 7.36 12 6 C11.67 6.66 11.34 7.32 11 8 C9 6.6875 9 6.6875 7 5 C7 4.01 7 3.02 7 2 C6.34 2 5.68 2 5 2 C4.34 3.32 3.68 4.64 3 6 C1.68 6 0.36 6 -1 6 C-0.67 4.02 -0.34 2.04 0 0 Z " fill="#1E1613" transform="translate(113,86)"/>
<path d="M0 0 C0.66 0 1.32 0 2 0 C3.78305524 2.63892176 4.99059621 4.97178863 6 8 C7.65 8.33 9.3 8.66 11 9 C11 12.63 11 16.26 11 20 C10.34 20 9.68 20 9 20 C9 17.69 9 15.38 9 13 C8.401875 12.87625 7.80375 12.7525 7.1875 12.625 C5 12 5 12 2 10 C1.8125 7.375 1.8125 7.375 2 5 C1.34 5 0.68 5 0 5 C0 3.35 0 1.7 0 0 Z " fill="#3F4046" transform="translate(37,44)"/>
<path d="M0 0 C0.99 0.495 0.99 0.495 2 1 C2 2.32 2 3.64 2 5 C2.99 4.67 3.98 4.34 5 4 C5.103125 4.763125 5.20625 5.52625 5.3125 6.3125 C6.04364039 9.17059424 6.76951913 10.15742885 9 12 C8.67 12.66 8.34 13.32 8 14 C13.3177215 15.24200752 18.58201328 16.30834212 24 17 C24 17.33 24 17.66 24 18 C21.26762206 17.96686201 18.54325157 17.89958039 15.8125 17.8125 C15.04357422 17.80669922 14.27464844 17.80089844 13.48242188 17.79492188 C9.37557794 17.63628842 7.44232352 17.32126655 4.03125 14.84375 C1.75206993 11.6528979 1.15499903 9.55499195 0.6875 5.6875 C0.54699219 4.61886719 0.40648437 3.55023437 0.26171875 2.44921875 C0.17535156 1.64097656 0.08898438 0.83273438 0 0 Z " fill="#5F5D61" transform="translate(46,26)"/>
<path d="M0 0 C0.66 0.33 1.32 0.66 2 1 C1.67 1.99 1.34 2.98 1 4 C1.66 4 2.32 4 3 4 C3.09765625 10.15234375 3.09765625 10.15234375 3 12 C2 13 2 13 -0.5625 13.0625 C-1.366875 13.041875 -2.17125 13.02125 -3 13 C-3 11.02 -3 9.04 -3 7 C-2.34 7 -1.68 7 -1 7 C-1.66 5.68 -2.32 4.36 -3 3 C-2.01 2.67 -1.02 2.34 0 2 C0 1.34 0 0.68 0 0 Z " fill="#1D1816" transform="translate(125,92)"/>
<path d="M0 0 C1 1 1 1 1.25 3.4375 C1.1675 4.283125 1.085 5.12875 1 6 C-2 8 -2 8 -6 8 C-6.33 5.36 -6.66 2.72 -7 0 C-4.31633121 -1.3418344 -2.84719317 -0.73004953 0 0 Z " fill="#EBF3F1" transform="translate(49,40)"/>
<path d="M0 0 C0.33 0 0.66 0 1 0 C1.33 3.3 1.66 6.6 2 10 C2.99 10.33 3.98 10.66 5 11 C5.99 12.485 5.99 12.485 7 14 C9.19454681 14.57993699 9.19454681 14.57993699 11.625 14.6875 C12.44226562 14.75324219 13.25953125 14.81898437 14.1015625 14.88671875 C14.72804688 14.92410156 15.35453125 14.96148437 16 15 C16 15.33 16 15.66 16 16 C12.7 16 9.4 16 6 16 C5.67 16.99 5.34 17.98 5 19 C4.01 18.67 3.02 18.34 2 18 C2.66 18 3.32 18 4 18 C3.67 16.35 3.34 14.7 3 13 C0.03 12.505 0.03 12.505 -3 12 C-3 11.34 -3 10.68 -3 10 C-2.01 10 -1.02 10 0 10 C0 6.7 0 3.4 0 0 Z " fill="#9499A4" transform="translate(46,28)"/>
<path d="M0 0 C1.02611949 1.65071396 2.02308143 3.31970006 3 5 C4.32 5.99 5.64 6.98 7 8 C3.04 7.67 -0.92 7.34 -5 7 C-5.33 5.68 -5.66 4.36 -6 3 C-4.04862098 0.26806937 -3.44686768 0 0 0 Z " fill="#2F343D" transform="translate(60,35)"/>
<path d="M0 0 C0.33 1.98 0.66 3.96 1 6 C-5.625 6.25 -5.625 6.25 -9 4 C-8.67 3.01 -8.34 2.02 -8 1 C-2.25 0 -2.25 0 0 0 Z " fill="#594842" transform="translate(109,45)"/>
<path d="M0 0 C0 0.99 0 1.98 0 3 C-1.65 3 -3.3 3 -5 3 C-5.33 4.32 -5.66 5.64 -6 7 C-6.66 7 -7.32 7 -8 7 C-8 7.66 -8 8.32 -8 9 C-10.64 9.33 -13.28 9.66 -16 10 C-13.66531825 6.49797737 -11.79831687 5.66176363 -8 4 C-7.34 4 -6.68 4 -6 4 C-6 3.01 -6 2.02 -6 1 C-3 0 -3 0 0 0 Z " fill="#3C4250" transform="translate(46,33)"/>
<path d="M0 0 C1.98 0.66 3.96 1.32 6 2 C6 2.99 6 3.98 6 5 C4.96939453 5.16435547 4.96939453 5.16435547 3.91796875 5.33203125 C3.01691406 5.49058594 2.11585937 5.64914063 1.1875 5.8125 C-0.15248047 6.03873047 -0.15248047 6.03873047 -1.51953125 6.26953125 C-4.18321256 7.05395393 -5.25690322 7.88627799 -7 10 C-6.65930765 6.84859577 -6.41923159 5.39218439 -4.0625 3.1875 C-2 2 -2 2 0 2 C0 1.34 0 0.68 0 0 Z " fill="#23221D" transform="translate(69,40)"/>
<path d="M0 0 C0.99 0 1.98 0 3 0 C3 1.32 3 2.64 3 4 C3.66 4 4.32 4 5 4 C5.33 3.01 5.66 2.02 6 1 C7.32 1.66 8.64 2.32 10 3 C10 3.66 10 4.32 10 5 C8.35 5 6.7 5 5 5 C5 5.66 5 6.32 5 7 C4.01 7.33 3.02 7.66 2 8 C0 6 0 6 -0.125 2.875 C-0.08375 1.92625 -0.0425 0.9775 0 0 Z " fill="#2A2A30" transform="translate(0,32)"/>
<path d="M0 0 C2.97 0 5.94 0 9 0 C9 1.65 9 3.3 9 5 C9.66 5.33 10.32 5.66 11 6 C10.01 6.495 10.01 6.495 9 7 C7.4972763 6.02501855 5.99788037 5.04490611 4.5 4.0625 C3.6646875 3.51722656 2.829375 2.97195312 1.96875 2.41015625 C1.3190625 1.94480469 0.669375 1.47945312 0 1 C0 0.67 0 0.34 0 0 Z " fill="#24282A" transform="translate(28,44)"/>
<path d="M0 0 C0.99 0 1.98 0 3 0 C3.66 1.65 4.32 3.3 5 5 C4.195625 5.12375 3.39125 5.2475 2.5625 5.375 C1.2940625 5.684375 1.2940625 5.684375 0 6 C-0.33 6.66 -0.66 7.32 -1 8 C-1.66 6.68 -2.32 5.36 -3 4 C-1.68 3.67 -0.36 3.34 1 3 C0.67 2.01 0.34 1.02 0 0 Z " fill="#241B16" transform="translate(95,99)"/>
<path d="M0 0 C0.33 0.99 0.66 1.98 1 3 C3.31 3 5.62 3 8 3 C7.67 4.32 7.34 5.64 7 7 C5.35 7.33 3.7 7.66 2 8 C0.02 4.535 0.02 4.535 -2 1 C-1.34 0.67 -0.68 0.34 0 0 Z " fill="#222123" transform="translate(37,72)"/>
<path d="M0 0 C0.99 0 1.98 0 3 0 C3 1.32 3 2.64 3 4 C-0.67410785 5.17571451 -4.16929183 5.07366746 -8 5 C-8 4.34 -8 3.68 -8 3 C-5.36 2.67 -2.72 2.34 0 2 C0 1.34 0 0.68 0 0 Z " fill="#383C48" transform="translate(56,48)"/>
<path d="M0 0 C0.33 0.99 0.66 1.98 1 3 C0.01 3.33 -0.98 3.66 -2 4 C-2 4.66 -2 5.32 -2 6 C-2.66 6 -3.32 6 -4 6 C-4.33 7.98 -4.66 9.96 -5 12 C-5.33 12 -5.66 12 -6 12 C-6 10.02 -6 8.04 -6 6 C-6.99 5.67 -7.98 5.34 -9 5 C-6.92690266 3.88941214 -5.11381589 3.02601506 -2.8125 2.5 C-2.214375 2.335 -1.61625 2.17 -1 2 C-0.67 1.34 -0.34 0.68 0 0 Z " fill="#8C8F97" transform="translate(52,44)"/>
<path d="M0 0 C1.32 0.33 2.64 0.66 4 1 C2.68 3.97 1.36 6.94 0 10 C-1.65 9.67 -3.3 9.34 -5 9 C-3.68 8.67 -2.36 8.34 -1 8 C-1 6.68 -1 5.36 -1 4 C-0.34 4 0.32 4 1 4 C0.67 2.68 0.34 1.36 0 0 Z " fill="#2E2D32" transform="translate(60,44)"/>
<path d="M0 0 C-0.33 1.65 -0.66 3.3 -1 5 C-4 5 -4 5 -7 4 C-7.33 3.01 -7.66 2.02 -8 1 C-5.29120665 -0.35439668 -2.99066732 -0.06501451 0 0 Z " fill="#160F0C" transform="translate(110,51)"/>
<path d="M0 0 C0.56203125 0.31710938 1.1240625 0.63421875 1.703125 0.9609375 C4.15196317 2.06874525 6.08387855 2.38975399 8.75 2.625 C9.54921875 2.69976562 10.3484375 2.77453125 11.171875 2.8515625 C11.77515625 2.90054688 12.3784375 2.94953125 13 3 C13 3.33 13 3.66 13 4 C9.7 4 6.4 4 3 4 C2.67 4.99 2.34 5.98 2 7 C1.01 6.67 0.02 6.34 -1 6 C-0.34 6 0.32 6 1 6 C0.67 4.02 0.34 2.04 0 0 Z " fill="#B4B4BC" transform="translate(49,40)"/>
<path d="M0 0 C0.66 0 1.32 0 2 0 C3.78305524 2.63892176 4.99059621 4.97178863 6 8 C6.99 8.33 7.98 8.66 9 9 C7.68 9 6.36 9 5 9 C5 8.34 5 7.68 5 7 C4.01 7 3.02 7 2 7 C2 6.34 2 5.68 2 5 C1.34 5 0.68 5 0 5 C0 3.35 0 1.7 0 0 Z " fill="#444B50" transform="translate(37,44)"/>
<path d="M0 0 C0.66 0 1.32 0 2 0 C2 0.99 2 1.98 2 3 C-1.20807554 5.38314183 -4.06380262 6.43768609 -8 7 C-8 6.34 -8 5.68 -8 5 C-6.20963542 3.99088542 -4.41927083 2.98177083 -2.62890625 1.97265625 C-1.02121854 1.1027487 -1.02121854 1.1027487 0 0 Z " fill="#242526" transform="translate(33,37)"/>
<path d="M0 0 C2.475 0.495 2.475 0.495 5 1 C5.33 2.65 5.66 4.3 6 6 C4.35 5.67 2.7 5.34 1 5 C0.67 3.35 0.34 1.7 0 0 Z " fill="#282828" transform="translate(57,23)"/>
<path d="M0 0 C1.32 0.33 2.64 0.66 4 1 C3.01 2.98 2.02 4.96 1 7 C0.34 7 -0.32 7 -1 7 C-1.33 8.32 -1.66 9.64 -2 11 C-2 9.35 -2 7.7 -2 6 C-1.34 6 -0.68 6 0 6 C0 4.02 0 2.04 0 0 Z " fill="#1E1E1F" transform="translate(48,58)"/>
<path d="M0 0 C0.99 0.495 0.99 0.495 2 1 C2 2.32 2 3.64 2 5 C2.99 4.67 3.98 4.34 5 4 C5.33 5.98 5.66 7.96 6 10 C4.68 10 3.36 10 2 10 C1.34 6.7 0.68 3.4 0 0 Z " fill="#3F414D" transform="translate(46,26)"/>
<path d="M0 0 C2.475 0.495 2.475 0.495 5 1 C5 3.31 5 5.62 5 8 C4.34 8 3.68 8 3 8 C2.67 6.02 2.34 4.04 2 2 C1.34 2 0.68 2 0 2 C0 1.34 0 0.68 0 0 Z " fill="#5F5652" transform="translate(123,88)"/>
<path d="M0 0 C1.32 0 2.64 0 4 0 C3.67 1.98 3.34 3.96 3 6 C1.68 6 0.36 6 -1 6 C-0.67 4.02 -0.34 2.04 0 0 Z " fill="#544C46" transform="translate(113,86)"/>
<path d="M0 0 C2.31 0 4.62 0 7 0 C4.78065836 3.32901247 3.65316671 3.75023244 0 5 C0 3.35 0 1.7 0 0 Z " fill="#2A2E34" transform="translate(48,53)"/>
<path d="M0 0 C1.65 0 3.3 0 5 0 C5 0.66 5 1.32 5 2 C4.01 2 3.02 2 2 2 C2 2.66 2 3.32 2 4 C1.34 4 0.68 4 0 4 C0 4.66 0 5.32 0 6 C-0.99 6 -1.98 6 -3 6 C-3 5.34 -3 4.68 -3 4 C-2.34 4 -1.68 4 -1 4 C-0.67 2.68 -0.34 1.36 0 0 Z " fill="#5F6471" transform="translate(41,36)"/>
<path d="M0 0 C2.61047801 1.305239 2.68066423 2.35826574 3.625 5.0625 C3.88539062 5.79597656 4.14578125 6.52945313 4.4140625 7.28515625 C4.60742188 7.85105469 4.80078125 8.41695312 5 9 C1.52659875 7.6106395 0.48205244 6.38754843 -1 3 C-1.66 2.34 -2.32 1.68 -3 1 C-2.01 0.67 -1.02 0.34 0 0 Z " fill="#212125" transform="translate(60,32)"/>
<path d="M0 0 C1.65 0 3.3 0 5 0 C4.67 0.99 4.34 1.98 4 3 C3.34 3 2.68 3 2 3 C1.67 3.99 1.34 4.98 1 6 C0.01 5.34 -0.98 4.68 -2 4 C-1.34 2.68 -0.68 1.36 0 0 Z " fill="#2D2C33" transform="translate(55,32)"/>
<path d="M0 0 C-0.66 2.64 -1.32 5.28 -2 8 C-1.34 8.33 -0.68 8.66 0 9 C-0.99 9 -1.98 9 -3 9 C-3.33 6.36 -3.66 3.72 -4 1 C-2 0 -2 0 0 0 Z " fill="#C7D2D4" transform="translate(46,39)"/>
<path d="M0 0 C2 3 2 3 2 5 C1.01 5 0.02 5 -1 5 C-1 5.66 -1 6.32 -1 7 C-2.32 6.67 -3.64 6.34 -5 6 C-4.34 6 -3.68 6 -3 6 C-3 5.34 -3 4.68 -3 4 C-2.34 3.67 -1.68 3.34 -1 3 C-0.67 2.01 -0.34 1.02 0 0 Z " fill="#555660" transform="translate(53,44)"/>
<path d="M0 0 C0.99 0 1.98 0 3 0 C3 0.99 3 1.98 3 3 C3.66 3.33 4.32 3.66 5 4 C2.92446352 4.5534764 1.15634036 5 -1 5 C-0.67 3.35 -0.34 1.7 0 0 Z " fill="#191A17" transform="translate(45,21)"/>
</svg>
